<svg xmlns="http://www.w3.org/2000/svg" xmlns:xlink="http://www.w3.org/1999/xlink" width="225.01" heigth="83.99" viewBox="0 0 225.01 83.99"><defs><linearGradient id="a" x1="50.63" y1="38.04" x2="73.47" y2="77.6" gradientUnits="userSpaceOnUse"><stop offset="0" stop-color="#fa2c32"/><stop offset="1" stop-color="#f9755b"/></linearGradient><linearGradient id="b" x1="86.48" y1="52.73" x2="104.55" y2="70.8" xlink:href="#a"/><linearGradient id="c" x1="22.75" y1="52.09" x2="35.5" y2="64.84" xlink:href="#a"/><linearGradient id="d" x1="6.14" y1="48.86" x2="24.28" y2="67" xlink:href="#a"/><linearGradient id="e" x1="61.98" y1="15.66" x2="95.33" y2="34.91" gradientUnits="userSpaceOnUse"><stop offset="0" stop-color="#fa2c32"/><stop offset="0.43" stop-color="#f95348"/><stop offset="0.79" stop-color="#f96c56"/><stop offset="1" stop-color="#f9755b"/></linearGradient><linearGradient id="f" x1="72.43" y1="10.74" x2="83.41" y2="17.08" xlink:href="#e"/><linearGradient id="g" x1="61.9" y1="9.51" x2="73.09" y2="15.97" xlink:href="#e"/><linearGradient id="h" x1="51.38" y1="9.27" x2="62.37" y2="15.61" xlink:href="#e"/><linearGradient id="i" x1="55.88" y1="4.24" x2="68.04" y2="16.4" gradientUnits="userSpaceOnUse"><stop offset="0.02" stop-color="#fa2c32"/><stop offset="0.49" stop-color="#fa2e33"/><stop offset="0.66" stop-color="#fa3537"/><stop offset="0.78" stop-color="#fa403e"/><stop offset="0.88" stop-color="#f95147"/><stop offset="0.96" stop-color="#f96753"/><stop offset="1" stop-color="#f9755b"/></linearGradient><linearGradient id="j" x1="48.32" y1="6.44" x2="56.55" y2="14.68" xlink:href="#i"/><linearGradient id="k" x1="64.36" y1="3.43" x2="78.61" y2="17.69" xlink:href="#i"/></defs><title>logov2-white</title><path d="M83.27,45.53,62,33.25,40.66,45.53l.15,24.55L62,82.51,83.27,70.08Zm-42.61,0L62,57.81,82.53,45.08M62,82.51V57.81" transform="translate(0 -0.26)" fill="none" stroke-width="3" stroke="url(#a)"/><g style="isolation:isolate"><path d="M216.85,42.2H222v7.52h3v4.42h-3v16h-5.12v-16h-2.63V49.72h2.63Z" transform="translate(0 -0.26)" fill="#f9f9f9"/><path d="M195.93,41.84V52a9.74,9.74,0,0,1,3-2.09,8.64,8.64,0,0,1,3.45-.69,8.94,8.94,0,0,1,6.8,3A11,11,0,0,1,212,60a10.68,10.68,0,0,1-2.89,7.63,9.09,9.09,0,0,1-6.85,3.07,8.63,8.63,0,0,1-3.28-.62,10.19,10.19,0,0,1-3-2.06v2.16h-5.08V41.84Zm5.39,12.09a5.38,5.38,0,0,0-4,1.65,6,6,0,0,0-1.59,4.32,6.14,6.14,0,0,0,1.59,4.4,5.33,5.33,0,0,0,4,1.68,5.21,5.21,0,0,0,4-1.71,6.68,6.68,0,0,0,0-8.66A5.23,5.23,0,0,0,201.32,53.93Z" transform="translate(0 -0.26)" fill="#f9f9f9"/><path d="M167.76,49.72h5.18v9.84a13.31,13.31,0,0,0,.4,4,3.48,3.48,0,0,0,1.27,1.74,3.64,3.64,0,0,0,2.15.62,3.8,3.8,0,0,0,2.17-.61,3.6,3.6,0,0,0,1.33-1.8,13.8,13.8,0,0,0,.32-3.77v-10h5.12v8.66q0,5.34-.84,7.32a8,8,0,0,1-3,3.69,9.38,9.38,0,0,1-5.11,1.28,9,9,0,0,1-5.43-1.5A7.91,7.91,0,0,1,168.36,65a25.46,25.46,0,0,1-.6-6.76Z" transform="translate(0 -0.26)" fill="#f9f9f9"/><path d="M152.76,49.2a10.88,10.88,0,0,1,5.44,1.44,10.6,10.6,0,0,1,5.39,9.28,10.77,10.77,0,0,1-1.43,5.4,10.44,10.44,0,0,1-3.92,3.94,10.84,10.84,0,0,1-5.46,1.41,10.19,10.19,0,0,1-7.5-3.12,10.4,10.4,0,0,1-3.11-7.6A10.73,10.73,0,0,1,152.76,49.2Zm.09,4.82a5.27,5.27,0,0,0-4,1.67,5.88,5.88,0,0,0-1.59,4.25,6,6,0,0,0,1.57,4.31,5.23,5.23,0,0,0,4,1.66,5.29,5.29,0,0,0,4-1.68,6.57,6.57,0,0,0,0-8.56A5.29,5.29,0,0,0,152.85,54Z" transform="translate(0 -0.26)" fill="#f9f9f9"/><path d="M132.86,41.84H138V70.15h-5.13V68a10.34,10.34,0,0,1-3,2.06,8.63,8.63,0,0,1-3.28.62,9.07,9.07,0,0,1-6.84-3.07A10.72,10.72,0,0,1,116.85,60a11,11,0,0,1,2.8-7.75,8.9,8.9,0,0,1,6.78-3,8.64,8.64,0,0,1,3.45.69,9.4,9.4,0,0,1,3,2.09Zm-5.38,12.09a5.18,5.18,0,0,0-4,1.68,6.71,6.71,0,0,0,0,8.66A5.17,5.17,0,0,0,127.5,66a5.27,5.27,0,0,0,4-1.68,6.14,6.14,0,0,0,1.59-4.4,6,6,0,0,0-1.59-4.32A5.35,5.35,0,0,0,127.48,53.93Z" transform="translate(0 -0.26)" fill="#f9f9f9"/></g><path d="M94.58,49.72V52a9.82,9.82,0,0,1,3-2.09A8.72,8.72,0,0,1,101,49.2a8.92,8.92,0,0,1,6.79,3,11,11,0,0,1,2.8,7.75,10.72,10.72,0,0,1-2.89,7.63,9.09,9.09,0,0,1-6.85,3.07,8.68,8.68,0,0,1-3.29-.62,10.28,10.28,0,0,1-3-2.06v9.63H89.49V49.72ZM100,53.93a5.35,5.35,0,0,0-4,1.65,6,6,0,0,0-1.6,4.32A6.15,6.15,0,0,0,96,64.3,5.3,5.3,0,0,0,100,66a5.21,5.21,0,0,0,4-1.71,6.71,6.71,0,0,0,0-8.66A5.23,5.23,0,0,0,100,53.93Z" transform="translate(0 -0.26)" fill="url(#b)"/><path d="M25.11,49.72h4.4V52.3A5.36,5.36,0,0,1,31.4,50,4.54,4.54,0,0,1,34,49.2a4.8,4.8,0,0,1,2.09.52l-1.6,4.42A3.51,3.51,0,0,0,33,53.69a2.33,2.33,0,0,0-2,1.46q-.83,1.47-.82,5.74l0,1v8.26H25.11Z" transform="translate(0 -0.26)" fill="url(#c)"/><path d="M16,41.84h5.12V70.15H16V68a10.25,10.25,0,0,1-3,2.06,8.58,8.58,0,0,1-3.27.62A9.06,9.06,0,0,1,2.89,67.6,10.68,10.68,0,0,1,0,60a11,11,0,0,1,2.79-7.75,8.94,8.94,0,0,1,6.79-3,8.71,8.71,0,0,1,3.45.69A9.51,9.51,0,0,1,16,52ZM10.62,53.93a5.16,5.16,0,0,0-3.94,1.68A6.06,6.06,0,0,0,5.1,59.92a6.14,6.14,0,0,0,1.6,4.35A5.19,5.19,0,0,0,10.64,66a5.29,5.29,0,0,0,4-1.68,6.19,6.19,0,0,0,1.59-4.4,6,6,0,0,0-1.59-4.32A5.35,5.35,0,0,0,10.62,53.93Z" transform="translate(0 -0.26)" fill="url(#d)"/><path d="M81.2,15.34A.81.81,0,0,1,81,16a1,1,0,0,1-.7.31.58.58,0,0,1-.38-.1h-.06L62.39,33.74h0v0s0,0,0,0h0v0h-.07s0,0,0,0l0,0h0s0,0,0,0h-.38s0,0,0,0h0v0h0s0,0,0,0h-.07v0h0s0,0,0,0,0,0,0,0v0h0L44,16.21h0a.64.64,0,0,1-.39.1A1,1,0,0,1,42.9,16a.88.88,0,0,1-.18-.67,17,17,0,0,1,5.35-9.6A19.83,19.83,0,0,1,58.18,1a9.81,9.81,0,0,1,7.57,0,19.8,19.8,0,0,1,10.1,4.72A16.78,16.78,0,0,1,81.2,15.34ZM63.51,30.92,78.72,15.66a10.51,10.51,0,0,0-4-.78,10.79,10.79,0,0,0-5.46,1.51,1.66,1.66,0,0,1-.48.24ZM79.87,14.83a15.73,15.73,0,0,0-4.82-8.2,18,18,0,0,0-7.87-4.06c2.09,3,3,8.11,2.13,12.43a11.75,11.75,0,0,1,5.45-1.34A12.06,12.06,0,0,1,79.87,14.83ZM68,15.34c1.14-4.68-.11-10.83-2.79-13.21a8.11,8.11,0,0,0-6.5,0C56,4.51,54.78,10.66,55.92,15.34a11.7,11.7,0,0,1,12.08,0ZM62,31.6l5.61-15.12-.19-.09a10.52,10.52,0,0,0-10.86,0c-.06,0-.13.07-.18.09Zm-1.55-.68L55.11,16.63a1.44,1.44,0,0,1-.48-.24,10.82,10.82,0,0,0-5.47-1.51,10.55,10.55,0,0,0-4,.78ZM54.61,15c-.86-4.32,0-9.43,2.13-12.43a17.92,17.92,0,0,0-7.86,4.06,15.6,15.6,0,0,0-4.82,8.2,12,12,0,0,1,5.1-1.17A11.66,11.66,0,0,1,54.61,15Z" transform="translate(0 -0.26)" fill="url(#e)"/><path d="M75.05,6.63a15.73,15.73,0,0,1,4.82,8.2,12.06,12.06,0,0,0-5.11-1.17A11.75,11.75,0,0,0,69.31,15c.86-4.32,0-9.43-2.13-12.43A18,18,0,0,1,75.05,6.63Z" transform="translate(0 -0.26)" fill="url(#f)"/><path d="M65.21,2.13c2.68,2.38,3.93,8.53,2.79,13.21a11.7,11.7,0,0,0-12.08,0C54.78,10.66,56,4.51,58.71,2.13a8.11,8.11,0,0,1,6.5,0Z" transform="translate(0 -0.26)" fill="url(#g)"/><path d="M56.74,2.57c-2.08,3-3,8.11-2.13,12.43a11.66,11.66,0,0,0-5.45-1.34,12,12,0,0,0-5.1,1.17,15.6,15.6,0,0,1,4.82-8.2A17.92,17.92,0,0,1,56.74,2.57Z" transform="translate(0 -0.26)" fill="url(#h)"/><path d="M58.71,2.13a8.11,8.11,0,0,1,6.5,0c2.68,2.38,3.93,8.53,2.79,13.21a11.7,11.7,0,0,0-12.08,0C54.78,10.66,56,4.51,58.71,2.13Z" transform="translate(0 -0.26)" fill="none" stroke="url(#i)"/><path d="M48.88,6.63a17.92,17.92,0,0,1,7.86-4.06c-2.08,3-3,8.11-2.13,12.43a11.66,11.66,0,0,0-5.45-1.34,12,12,0,0,0-5.1,1.17A15.6,15.6,0,0,1,48.88,6.63Z" transform="translate(0 -0.26)" fill="none" stroke="url(#j)"/><path d="M74.76,13.66A11.75,11.75,0,0,0,69.31,15c.86-4.32,0-9.43-2.13-12.43a18,18,0,0,1,7.87,4.06,15.73,15.73,0,0,1,4.82,8.2A12.06,12.06,0,0,0,74.76,13.66Z" transform="translate(0 -0.26)" fill="none" stroke="url(#k)"/></svg>